<svg width="20" height="20" viewBox="0 0 20 20" fill="none" xmlns="http://www.w3.org/2000/svg">
<path d="M19.4297 14.1331L15.0547 12.2581C14.8678 12.1784 14.6601 12.1617 14.4628 12.2103C14.2656 12.2589 14.0894 12.3703 13.9609 12.5276L12.0234 14.8948C8.98258 13.461 6.53537 11.0138 5.10156 7.97293L7.46875 6.03543C7.62665 5.90734 7.73841 5.7312 7.78706 5.53379C7.83571 5.33638 7.81858 5.12848 7.73828 4.94168L5.86328 0.566684C5.77519 0.365475 5.61979 0.201221 5.42376 0.102138C5.22773 0.00305389 5.00331 -0.0246745 4.78906 0.0237154L0.726563 0.961215C0.519923 1.00893 0.335567 1.1253 0.203603 1.29132C0.0716391 1.45734 -0.000135789 1.6632 1.92864e-07 1.87528C1.92864e-07 11.8948 8.12109 20.0003 18.125 20.0003C18.3371 20.0004 18.5429 19.9286 18.709 19.7967C18.875 19.6647 18.9913 19.4804 19.0391 19.2737L19.9766 15.2112C20.0249 14.996 19.9967 14.7706 19.8969 14.5738C19.7971 14.3771 19.6319 14.2212 19.4297 14.1331Z" fill="#002156"/>
</svg>
