<svg width="45" height="45" viewBox="0 0 45 45" fill="none" xmlns="http://www.w3.org/2000/svg">
<g id="circle-plus-thin 1" clip-path="url(#clip0_1214_5051)">
<path id="Vector" d="M22.5 1.89404C25.2085 1.89404 27.8905 2.42752 30.3928 3.46403C32.8952 4.50053 35.1689 6.01976 37.0841 7.93497C38.9993 9.85017 40.5185 12.1239 41.555 14.6262C42.5915 17.1285 43.125 19.8105 43.125 22.519C43.125 25.2276 42.5915 27.9095 41.555 30.4119C40.5185 32.9142 38.9993 35.1879 37.0841 37.1031C35.1689 39.0183 32.8952 40.5376 30.3928 41.5741C27.8905 42.6106 25.2085 43.144 22.5 43.144C19.7915 43.144 17.1095 42.6106 14.6072 41.5741C12.1048 40.5376 9.83113 39.0183 7.91592 37.1031C6.00071 35.1879 4.48149 32.9142 3.44498 30.4119C2.40848 27.9095 1.875 25.2276 1.875 22.519C1.875 19.8105 2.40848 17.1285 3.44498 14.6262C4.48149 12.1239 6.00071 9.85017 7.91592 7.93497C9.83113 6.01976 12.1048 4.50053 14.6072 3.46403C17.1095 2.42752 19.7915 1.89404 22.5 1.89404ZM22.5 44.519C28.3348 44.519 33.9305 42.2012 38.0564 38.0754C42.1822 33.9496 44.5 28.3538 44.5 22.519C44.5 16.6843 42.1822 11.0885 38.0564 6.96269C33.9305 2.83689 28.3348 0.519043 22.5 0.519043C16.6652 0.519043 11.0695 2.83689 6.94365 6.96269C2.81785 11.0885 0.5 16.6843 0.5 22.519C0.5 28.3538 2.81785 33.9496 6.94365 38.0754C11.0695 42.2012 16.6652 44.519 22.5 44.519ZM21.8125 30.769C21.8125 31.1472 22.1219 31.4565 22.5 31.4565C22.8781 31.4565 23.1875 31.1472 23.1875 30.769V23.2065H30.75C31.1281 23.2065 31.4375 22.8972 31.4375 22.519C31.4375 22.1409 31.1281 21.8315 30.75 21.8315H23.1875V14.269C23.1875 13.8909 22.8781 13.5815 22.5 13.5815C22.1219 13.5815 21.8125 13.8909 21.8125 14.269V21.8315H14.25C13.8719 21.8315 13.5625 22.1409 13.5625 22.519C13.5625 22.8972 13.8719 23.2065 14.25 23.2065H21.8125V30.769Z" fill="white"/>
</g>
<defs>
<clipPath id="clip0_1214_5051">
<rect width="44" height="44" fill="white" transform="translate(0.5 0.519043)"/>
</clipPath>
</defs>
</svg>
