<svg width="30" height="31" viewBox="0 0 30 31" fill="none" xmlns="http://www.w3.org/2000/svg">
<g id="plus-light-svg 2">
<path id="Vector" d="M29.375 13.7773H16.875V1.27734C16.875 0.933594 16.5938 0.652344 16.25 0.652344H13.75C13.4062 0.652344 13.125 0.933594 13.125 1.27734V13.7773H0.625C0.28125 13.7773 0 14.0586 0 14.4023V16.9023C0 17.2461 0.28125 17.5273 0.625 17.5273H13.125V30.0273C13.125 30.3711 13.4062 30.6523 13.75 30.6523H16.25C16.5938 30.6523 16.875 30.3711 16.875 30.0273V17.5273H29.375C29.7188 17.5273 30 17.2461 30 16.9023V14.4023C30 14.0586 29.7188 13.7773 29.375 13.7773Z" fill="white"/>
</g>
</svg>
