<svg width="50" height="32" viewBox="0 0 50 32" fill="none" xmlns="http://www.w3.org/2000/svg">
<g id="plus-light-svg 3">
<path id="Vector" d="M34.7071 1.11028L33.9147 1.96184C33.3902 2.52554 33.3902 3.43707 33.9147 4.00077L43.289 14.0036H1.33918C0.602631 14.0036 0 14.6512 0 15.4428V16.6422C0 17.4338 0.602631 18.0814 1.33918 18.0814H43.289L33.9259 28.0842C33.4014 28.6479 33.4014 29.5595 33.9259 30.1232L34.7182 30.9747C35.2428 31.5384 36.0909 31.5384 36.6154 30.9747L49.6166 17.062C50.1411 16.4983 50.1411 15.5867 49.6166 15.023L36.6042 1.11028C36.0797 0.546573 35.2316 0.546573 34.7071 1.11028Z" fill="white"/>
</g>
</svg>
